<svg version="1.1" id="Layer_1" xmlns="http://www.w3.org/2000/svg" xmlns:xlink="http://www.w3.org/1999/xlink" x="0px" y="0px"
	 width="100%" viewBox="0 0 177 115" enable-background="new 0 0 177 115" xml:space="preserve">
<path fill="#FEFDFD" opacity="1.000000" stroke="none" 
	d="
M91.000000,1.000000 
	C119.978111,1.000000 148.956223,1.000000 177.967163,1.000000 
	C177.967163,39.282486 177.967163,77.565010 177.967163,115.923767 
	C119.095436,115.923767 60.190750,115.923767 1.143030,115.923767 
	C1.143030,77.666992 1.143030,39.333584 1.143030,1.000000 
	C29.438738,1.000000 57.750710,1.000000 86.408768,1.324929 
	C86.001724,1.993626 85.215752,2.280143 84.500816,2.690447 
	C79.823463,5.374787 77.803505,9.984840 79.109230,14.920204 
	C80.287163,19.372526 84.910652,22.715734 89.627365,22.525774 
	C94.617500,22.324802 98.821762,18.667355 99.738647,13.729589 
	C100.565788,9.275160 97.940590,4.581049 93.403702,2.354132 
	C92.579491,1.949569 91.800087,1.453710 91.000000,1.000000 
M83.449295,106.346352 
	C78.561829,106.453072 73.674370,106.559792 68.072662,106.638443 
	C67.119728,106.639824 66.166786,106.641212 64.478699,106.247192 
	C60.951038,106.331802 57.423374,106.416412 53.313984,106.457855 
	C52.925499,106.469238 52.537018,106.480621 51.501778,106.262535 
	C51.283485,106.330902 51.065189,106.399277 49.932827,106.412025 
	C36.658070,106.350952 23.383308,106.289879 9.554124,106.058197 
	C9.412640,106.667168 9.271154,107.276131 10.029158,108.098526 
	C17.631147,108.123566 25.233135,108.148605 33.115955,108.455666 
	C33.466335,108.363213 33.816711,108.270767 35.081654,108.238976 
	C44.961502,108.280052 54.841351,108.321129 65.125038,108.663803 
	C65.432526,108.582344 65.740013,108.500877 66.817024,108.525360 
	C67.851395,108.503242 68.885765,108.481133 70.498177,108.680000 
	C70.692085,108.609627 70.885994,108.539261 71.995064,108.575851 
	C76.987076,108.576286 81.979080,108.576729 87.827148,108.865173 
	C90.230423,108.791595 92.633705,108.718018 95.964928,108.729752 
	C109.809425,108.729752 123.653923,108.729752 138.567459,108.729752 
	C137.291550,107.544868 137.089661,107.192299 136.884613,107.190460 
	C119.313774,107.032776 101.742699,106.902206 83.449295,106.346352 
M88.485474,27.991482 
	C85.696129,27.991482 82.906792,27.991482 79.754028,27.991482 
	C82.638657,48.865166 85.454353,69.240044 88.270050,89.614914 
	C88.894844,89.610458 89.519638,89.606010 90.144432,89.601555 
	C92.957077,69.229408 95.769722,48.857265 98.650543,27.991285 
	C95.375259,27.991285 92.412239,27.991285 88.485474,27.991482 
M47.356266,33.166744 
	C56.748470,38.980064 66.985443,42.054497 78.388313,43.250351 
	C77.745590,38.536003 77.194817,34.496067 76.615852,30.249378 
	C63.687538,29.324411 51.419647,26.936199 40.058128,20.982267 
	C39.215378,20.540627 37.793377,21.204321 36.640659,21.354160 
	C36.830513,22.522081 36.599857,24.132637 37.282841,24.781479 
	C40.277939,27.626854 43.537437,30.193918 47.356266,33.166744 
M141.063354,20.732235 
	C139.407959,21.174740 137.744370,21.588816 136.098511,22.064344 
	C124.898903,25.300213 113.703041,28.549019 101.641281,32.044216 
	C101.273506,34.611492 100.696526,38.639103 100.025200,43.325298 
	C115.881721,41.221394 129.874481,36.566372 140.866470,25.168629 
	C141.656372,24.349585 141.415833,22.536804 141.063354,20.732235 
M102.499954,114.241196 
	C126.707619,114.241196 150.915283,114.241196 175.122940,114.241196 
	C175.116440,113.775276 175.109924,113.309349 175.103409,112.843430 
	C117.673347,112.843430 60.243282,112.843430 1.556944,112.843430 
	C3.087176,113.774391 3.364686,114.090935 3.642828,114.091492 
	C36.261837,114.156891 68.880898,114.198845 102.499954,114.241196 
M106.457985,98.741783 
	C104.942299,97.084625 103.099541,95.620399 101.983154,93.727722 
	C100.024826,90.407654 97.420135,89.744385 94.562958,91.812164 
	C90.748695,94.572556 87.576210,94.344162 83.667023,91.826248 
	C82.243675,90.909477 78.779739,91.522507 77.286171,92.726715 
	C74.883347,94.663986 73.343575,97.671715 71.347534,100.350143 
	C74.032501,103.905792 77.388748,104.481270 82.456573,101.255859 
	C87.028221,98.346245 91.270798,97.915482 95.775345,101.197151 
	C96.940895,102.046280 98.445190,102.969894 99.775291,102.942924 
	C102.664490,102.884323 106.818222,104.614563 106.457985,98.741783 
M47.650879,70.249741 
	C50.851345,67.492561 52.605087,64.168129 51.876633,59.794025 
	C44.379108,59.794025 37.022022,59.794025 29.679667,59.794025 
	C29.532370,70.553963 37.284122,75.264534 47.650879,70.249741 
M148.033188,66.132492 
	C148.414886,64.139038 148.796600,62.145584 149.227798,59.893665 
	C141.090576,59.893665 133.771286,59.893665 126.420372,59.893665 
	C127.045547,67.009842 129.476074,70.582184 134.431992,72.046204 
	C139.585846,73.568695 143.776230,71.928696 148.033188,66.132492 
M35.483082,55.887745 
	C36.304203,55.202343 37.854668,54.492279 37.832455,53.835396 
	C37.633270,47.944683 37.157421,42.063324 36.762905,36.179214 
	C36.495045,36.121170 36.227180,36.063126 35.959316,36.005081 
	C34.200539,42.410946 32.441765,48.816811 30.587719,55.569668 
	C32.339275,55.705448 33.464642,55.792690 35.483082,55.887745 
M141.227448,43.607246 
	C141.045059,47.531189 140.862686,51.455132 140.668152,55.640129 
	C142.874466,55.640129 144.773468,55.640129 147.839264,55.640129 
	C145.997238,48.840649 144.295853,42.560249 142.594452,36.279850 
	C142.116104,36.357998 141.637756,36.436150 141.159409,36.514301 
	C141.159409,38.568638 141.159409,40.622978 141.227448,43.607246 
M47.477226,42.295975 
	C46.909336,40.963104 46.341446,39.630234 45.637138,37.977180 
	C44.889442,44.257111 44.216949,49.905376 43.544838,55.550465 
	C45.296482,55.550465 47.143379,55.550465 49.580044,55.550465 
	C48.944828,51.090309 48.368866,47.046169 47.477226,42.295975 
M134.149765,50.841240 
	C133.719711,46.903435 133.289658,42.965630 132.859604,39.027824 
	C132.439941,38.997536 132.020279,38.967251 131.600632,38.936962 
	C130.646652,44.418499 129.692688,49.900036 128.688782,55.668560 
	C131.509857,55.668560 133.254623,55.668560 135.334213,55.668560 
	C134.941254,54.116177 134.626556,52.873005 134.149765,50.841240 
M143.393570,108.910324 
	C151.808792,108.881180 160.223999,108.852036 168.639221,108.822891 
	C168.616196,108.196533 168.593185,107.570175 168.570160,106.943817 
	C161.617004,106.943817 154.663849,106.942535 147.710693,106.945076 
	C146.544861,106.945496 145.337341,106.781952 144.228516,107.038055 
	C143.539505,107.197182 143.000015,108.003624 143.393570,108.910324 
z"/>
<path fill="#D22C59" opacity="1.000000" stroke="none" 
	d="
M90.600006,1.000000 
	C91.800087,1.453710 92.579491,1.949569 93.403702,2.354132 
	C97.940590,4.581049 100.565788,9.275160 99.738647,13.729589 
	C98.821762,18.667355 94.617500,22.324802 89.627365,22.525774 
	C84.910652,22.715734 80.287163,19.372526 79.109230,14.920204 
	C77.803505,9.984840 79.823463,5.374787 84.500816,2.690447 
	C85.215752,2.280143 86.001724,1.993626 86.877426,1.324929 
	C88.066673,1.000000 89.133339,1.000000 90.600006,1.000000 
z"/>
<path fill="#070707" opacity="1.000000" stroke="none" 
	d="
M88.967346,27.991383 
	C92.412239,27.991285 95.375259,27.991285 98.650543,27.991285 
	C95.769722,48.857265 92.957077,69.229408 90.144432,89.601555 
	C89.519638,89.606010 88.894844,89.610458 88.270050,89.614914 
	C85.454353,69.240044 82.638657,48.865166 79.754028,27.991482 
	C82.906792,27.991482 85.696129,27.991482 88.967346,27.991383 
z"/>
<path fill="#090909" opacity="1.000000" stroke="none" 
	d="
M47.028656,33.014332 
	C43.537437,30.193918 40.277939,27.626854 37.282841,24.781479 
	C36.599857,24.132637 36.830513,22.522081 36.640663,21.354160 
	C37.793377,21.204321 39.215378,20.540627 40.058128,20.982267 
	C51.419647,26.936199 63.687538,29.324411 76.615852,30.249378 
	C77.194817,34.496067 77.745590,38.536003 78.388313,43.250351 
	C66.985443,42.054497 56.748470,38.980064 47.028656,33.014332 
z"/>
<path fill="#D22F5A" opacity="1.000000" stroke="none" 
	d="
M141.358887,20.959152 
	C141.415833,22.536804 141.656372,24.349585 140.866470,25.168629 
	C129.874481,36.566372 115.881721,41.221394 100.025200,43.325298 
	C100.696526,38.639103 101.273506,34.611492 101.641281,32.044216 
	C113.703041,28.549019 124.898903,25.300213 136.098511,22.064344 
	C137.744370,21.588816 139.407959,21.174740 141.358887,20.959152 
z"/>
<path fill="#CC4C6C" opacity="1.000000" stroke="none" 
	d="
M101.999954,114.241623 
	C68.880898,114.198845 36.261837,114.156891 3.642828,114.091492 
	C3.364686,114.090935 3.087176,113.774391 1.556944,112.843430 
	C60.243282,112.843430 117.673347,112.843430 175.103409,112.843430 
	C175.109924,113.309349 175.116440,113.775276 175.122940,114.241196 
	C150.915283,114.241196 126.707619,114.241196 101.999954,114.241623 
z"/>
<path fill="#090808" opacity="1.000000" stroke="none" 
	d="
M106.729904,98.958725 
	C106.818222,104.614563 102.664490,102.884323 99.775291,102.942924 
	C98.445190,102.969894 96.940895,102.046280 95.775345,101.197151 
	C91.270798,97.915482 87.028221,98.346245 82.456573,101.255859 
	C77.388748,104.481270 74.032501,103.905792 71.347534,100.350143 
	C73.343575,97.671715 74.883347,94.663986 77.286171,92.726715 
	C78.779739,91.522507 82.243675,90.909477 83.667023,91.826248 
	C87.576210,94.344162 90.748695,94.572556 94.562958,91.812164 
	C97.420135,89.744385 100.024826,90.407654 101.983154,93.727722 
	C103.099541,95.620399 104.942299,97.084625 106.729904,98.958725 
z"/>
<path fill="#111112" opacity="1.000000" stroke="none" 
	d="
M47.362991,70.486572 
	C37.284122,75.264534 29.532370,70.553963 29.679667,59.794025 
	C37.022022,59.794025 44.379108,59.794025 51.876633,59.794025 
	C52.605087,64.168129 50.851345,67.492561 47.362991,70.486572 
z"/>
<path fill="#D22C58" opacity="1.000000" stroke="none" 
	d="
M147.871155,66.491196 
	C143.776230,71.928696 139.585846,73.568695 134.431992,72.046204 
	C129.476074,70.582184 127.045547,67.009842 126.420372,59.893665 
	C133.771286,59.893665 141.090576,59.893665 149.227798,59.893665 
	C148.796600,62.145584 148.414886,64.139038 147.871155,66.491196 
z"/>
<path fill="#CA2D4F" opacity="1.000000" stroke="none" 
	d="
M10.108549,106.228806 
	C23.383308,106.289879 36.658070,106.350952 50.520355,106.586624 
	C51.454769,106.671478 51.801651,106.581749 52.148533,106.492004 
	C52.537018,106.480621 52.925499,106.469238 53.967316,106.668182 
	C58.151714,106.799881 61.682781,106.721245 65.213852,106.642609 
	C66.166786,106.641212 67.119728,106.639824 68.894104,106.798729 
	C74.534233,106.895920 79.352936,106.832832 84.171631,106.769745 
	C101.742699,106.902206 119.313774,107.032776 136.884613,107.190460 
	C137.089661,107.192299 137.291550,107.544868 138.567459,108.729752 
	C123.653923,108.729752 109.809425,108.729752 95.193283,108.466751 
	C91.938126,108.328224 89.454613,108.452698 86.971092,108.577164 
	C81.979080,108.576729 76.987076,108.576286 71.420837,108.391228 
	C70.537788,108.290741 70.228966,108.374878 69.920135,108.459023 
	C68.885765,108.481133 67.851395,108.503242 66.230087,108.332474 
	C65.292244,108.032974 64.984924,108.107178 64.721199,108.362206 
	C54.841351,108.321129 44.961502,108.280052 34.291580,108.129913 
	C33.279381,108.071777 33.057255,108.122711 32.835125,108.173645 
	C25.233135,108.148605 17.631147,108.123566 9.647575,107.757439 
	C9.546845,107.020500 9.827697,106.624649 10.108549,106.228806 
z"/>
<path fill="#161616" opacity="1.000000" stroke="none" 
	d="
M35.036545,55.883835 
	C33.464642,55.792690 32.339275,55.705448 30.587719,55.569668 
	C32.441765,48.816811 34.200539,42.410946 35.959316,36.005081 
	C36.227180,36.063126 36.495045,36.121170 36.762905,36.179214 
	C37.157421,42.063324 37.633270,47.944683 37.832455,53.835396 
	C37.854668,54.492279 36.304203,55.202343 35.036545,55.883835 
z"/>
<path fill="#D23D63" opacity="1.000000" stroke="none" 
	d="
M141.193420,43.142281 
	C141.159409,40.622978 141.159409,38.568638 141.159409,36.514301 
	C141.637756,36.436150 142.116104,36.357998 142.594452,36.279850 
	C144.295853,42.560249 145.997238,48.840649 147.839264,55.640129 
	C144.773468,55.640129 142.874466,55.640129 140.668152,55.640129 
	C140.862686,51.455132 141.045059,47.531189 141.193420,43.142281 
z"/>
<path fill="#1A191A" opacity="1.000000" stroke="none" 
	d="
M47.635063,42.649002 
	C48.368866,47.046169 48.944828,51.090309 49.580044,55.550465 
	C47.143379,55.550465 45.296482,55.550465 43.544838,55.550465 
	C44.216949,49.905376 44.889442,44.257111 45.637138,37.977180 
	C46.341446,39.630234 46.909336,40.963104 47.635063,42.649002 
z"/>
<path fill="#D04369" opacity="1.000000" stroke="none" 
	d="
M134.230820,51.235535 
	C134.626556,52.873005 134.941254,54.116177 135.334213,55.668560 
	C133.254623,55.668560 131.509857,55.668560 128.688782,55.668560 
	C129.692688,49.900036 130.646652,44.418499 131.600632,38.936962 
	C132.020279,38.967251 132.439941,38.997536 132.859604,39.027824 
	C133.289658,42.965630 133.719711,46.903435 134.230820,51.235535 
z"/>
<path fill="#CA2D4F" opacity="1.000000" stroke="none" 
	d="
M142.893494,108.714928 
	C143.000015,108.003624 143.539505,107.197182 144.228516,107.038055 
	C145.337341,106.781952 146.544861,106.945496 147.710693,106.945076 
	C154.663849,106.942535 161.617004,106.943817 168.570160,106.943817 
	C168.593185,107.570175 168.616196,108.196533 168.639221,108.822891 
	C160.223999,108.852036 151.808792,108.881180 142.893494,108.714928 
z"/>
<path fill="#D5889B" opacity="1.000000" stroke="none" 
	d="
M83.810463,106.558044 
	C79.352936,106.832832 74.534233,106.895920 69.251221,106.812767 
	C73.674370,106.559792 78.561829,106.453072 83.810463,106.558044 
z"/>
<path fill="#D5889B" opacity="1.000000" stroke="none" 
	d="
M64.846275,106.444901 
	C61.682781,106.721245 58.151714,106.799881 54.258179,106.689766 
	C57.423374,106.416412 60.951038,106.331802 64.846275,106.444901 
z"/>
<path fill="#DC758B" opacity="1.000000" stroke="none" 
	d="
M87.399124,108.721176 
	C89.454613,108.452698 91.938126,108.328224 94.729309,108.424095 
	C92.633705,108.718018 90.230423,108.791595 87.399124,108.721176 
z"/>
<path fill="#D5889B" opacity="1.000000" stroke="none" 
	d="
M9.831336,106.143501 
	C9.827697,106.624649 9.546845,107.020500 9.197832,107.650726 
	C9.271154,107.276131 9.412640,106.667168 9.831336,106.143501 
z"/>
<path fill="#DC758B" opacity="1.000000" stroke="none" 
	d="
M32.975540,108.314651 
	C33.057255,108.122711 33.279381,108.071777 33.834297,108.099579 
	C33.816711,108.270767 33.466335,108.363213 32.975540,108.314651 
z"/>
<path fill="#D5889B" opacity="1.000000" stroke="none" 
	d="
M51.825157,106.377274 
	C51.801651,106.581749 51.454769,106.671478 50.977386,106.614433 
	C51.065189,106.399277 51.283485,106.330902 51.825157,106.377274 
z"/>
<path fill="#DC758B" opacity="1.000000" stroke="none" 
	d="
M64.923119,108.513000 
	C64.984924,108.107178 65.292244,108.032974 65.845322,108.279495 
	C65.740013,108.500877 65.432526,108.582344 64.923119,108.513000 
z"/>
<path fill="#DC758B" opacity="1.000000" stroke="none" 
	d="
M70.209152,108.569511 
	C70.228966,108.374878 70.537788,108.290741 70.963257,108.337753 
	C70.885994,108.539261 70.692085,108.609627 70.209152,108.569511 
z"/>
</svg>